HIERARCHY
ROOT Hips
{
	OFFSET 0.000000 0.000000 0.000000
	CHANNELS 6 Xposition Yposition Zposition Xrotation Yrotation Zrotation
	JOINT LeftUpLeg_virtual
	{
		OFFSET 0.000000 0.000000 0.000000
		CHANNELS 3 Xrotation Yrotation Zrotation
		JOINT LeftUpLeg
		{
			OFFSET 15.427100 -6.655098 0.678600
			CHANNELS 3 Xrotation Yrotation Zrotation
			JOINT LeftLeg
			{
				OFFSET 4.081073 -39.591068 13.024000
				CHANNELS 3 Xrotation Yrotation Zrotation
				JOINT LeftFoot
				{
					OFFSET -4.081074 -37.707932 -15.979700
					CHANNELS 3 Xrotation Yrotation Zrotation
					JOINT LeftToeBase
					{
						OFFSET 5.346399 -15.068900 20.645000
						CHANNELS 3 Xrotation Yrotation Zrotation
						JOINT LeftToe_End
						{
							OFFSET 2.754700 0.931300 11.300900
							CHANNELS 3 Xrotation Yrotation Zrotation
							End Site
							{
								OFFSET 0 0 0
							}
						}
					}
				}
			}
		}
	}
	JOINT RightUpLeg_virtual
	{
		OFFSET 0.000000 0.000000 0.000000
		CHANNELS 3 Xrotation Yrotation Zrotation
		JOINT RightUpLeg
		{
			OFFSET -15.569500 -6.655098 0.678600
			CHANNELS 3 Xrotation Yrotation Zrotation
			JOINT RightLeg
			{
				OFFSET -4.081825 -39.591045 13.023800
				CHANNELS 3 Xrotation Yrotation Zrotation
				JOINT RightFoot
				{
					OFFSET 4.081824 -37.707954 -15.979600
					CHANNELS 3 Xrotation Yrotation Zrotation
					JOINT RightToeBase
					{
						OFFSET -5.346400 -15.068900 20.645000
						CHANNELS 3 Xrotation Yrotation Zrotation
						JOINT RightToe_End
						{
							OFFSET -2.754700 0.931300 11.300900
							CHANNELS 3 Xrotation Yrotation Zrotation
							End Site
							{
								OFFSET 0 0 0
							}
						}
					}
				}
			}
		}
	}
	JOINT Spine_virtual
	{
		OFFSET 0.000000 0.000000 0.000000
		CHANNELS 3 Xrotation Yrotation Zrotation
		JOINT Spine
		{
			OFFSET -0.279200 12.230698 -2.892100
			CHANNELS 3 Xrotation Yrotation Zrotation
			JOINT Spine1
			{
				OFFSET -0.232667 10.192268 -1.242267
				CHANNELS 3 Xrotation Yrotation Zrotation
				JOINT Spine1_split
				{
					OFFSET -0.232667 10.192268 -1.242267
					CHANNELS 3 Xrotation Yrotation Zrotation
					JOINT Spine2
					{
						OFFSET -0.232667 10.192268 -1.242267
						CHANNELS 3 Xrotation Yrotation Zrotation
						JOINT Neck_virtual
						{
							OFFSET 0.000000 0.000000 0.000000
							CHANNELS 3 Xrotation Yrotation Zrotation
							JOINT Neck
							{
								OFFSET -0.418800 17.814194 8.416900
								CHANNELS 3 Xrotation Yrotation Zrotation
								JOINT Head
								{
									OFFSET 0.000000 7.031097 3.806800
									CHANNELS 3 Xrotation Yrotation Zrotation
									JOINT HeadTop_End
									{
										OFFSET 0.000000 24.646606 12.978600
										CHANNELS 3 Xrotation Yrotation Zrotation
										End Site
										{
											OFFSET 0 0 0
										}
									}
								}
							}
						}
						JOINT LeftShoulder_virtual
						{
							OFFSET 0.000000 0.000000 0.000000
							CHANNELS 3 Xrotation Yrotation Zrotation
							JOINT LeftShoulder
							{
								OFFSET 8.476499 7.247704 -3.868750
								CHANNELS 3 Xrotation Yrotation Zrotation
								JOINT LeftShoulder_split
								{
									OFFSET 8.476499 7.247704 -3.868750
									CHANNELS 3 Xrotation Yrotation Zrotation
									JOINT LeftArm
									{
										OFFSET 9.308998 -2.777710 0.208600
										CHANNELS 3 Xrotation Yrotation Zrotation
										JOINT LeftForeArm
										{
											OFFSET 29.972298 0.000000 0.000000
											CHANNELS 3 Xrotation Yrotation Zrotation
											JOINT LeftHand
											{
												OFFSET 26.026505 0.000000 0.000000
												CHANNELS 3 Xrotation Yrotation Zrotation
												End Site
												{
													OFFSET 0 0 0
												}
											}
										}
									}
								}
							}
						}
						JOINT RightShoulder_virtual
						{
							OFFSET 0.000000 0.000000 0.000000
							CHANNELS 3 Xrotation Yrotation Zrotation
							JOINT RightShoulder
							{
								OFFSET -7.570500 7.247704 -3.868750
								CHANNELS 3 Xrotation Yrotation Zrotation
								JOINT RightShoulder_split
								{
									OFFSET -7.570500 7.247704 -3.868750
									CHANNELS 3 Xrotation Yrotation Zrotation
									JOINT RightArm
									{
										OFFSET -9.308998 -2.777710 0.208500
										CHANNELS 3 Xrotation Yrotation Zrotation
										JOINT RightForeArm
										{
											OFFSET -29.972300 0.000000 0.000000
											CHANNELS 3 Xrotation Yrotation Zrotation
											JOINT RightHand
											{
												OFFSET -26.026505 0.000000 0.000000
												CHANNELS 3 Xrotation Yrotation Zrotation
												End Site
												{
													OFFSET 0 0 0
												}
											}
										}
									}
								}
							}
						}
					}
				}
			}
		}
	}
}
MOTION
Frames: 11
Frame Time: 0.03333333
1.252947 94.649567 -1.764729 0.000000 0.000000 0.000000 3.402391 -31.406876 2.309244 -12.862685 16.201082 13.759350 14.959584 12.713472 -3.217584 -4.161566 -3.180062 -7.590395 2.387041 0.315851 -0.526770 0.000000 0.000000 0.000000 3.911941 -30.378274 2.255436 -7.789508 -1.039135 -8.649061 9.288782 8.754573 1.038965 -5.243167 -0.460814 4.524967 -1.748089 -0.155651 0.256305 0.000000 0.000000 0.000000 3.236339 -29.822119 1.192599 7.454982 0.042423 -1.037925 1.381208 -0.821178 2.356454 0.455257 0.197514 0.637994 0.000000 0.000000 0.000000 1.054832 -0.394739 2.514552 -4.585117 17.724985 -7.191161 -5.909303 15.488760 0.267247 0.000000 0.000000 0.000000 1.239212 -0.626222 2.616417 0.947136 -10.336664 0.261607 1.376779 -0.153726 0.346225 -59.795048 1.266922 -39.402528 9.516672 -60.212216 11.907209 0.000000 0.000000 0.000000 0.818031 -0.462279 2.671926 4.786594 6.066578 7.264903 -0.686512 -0.100891 -1.540011 0.098555 0.506680 63.440716 12.363032 23.392457 -3.851729 0.000000 0.000000 0.000000 
1.242718 94.665924 -1.697208 0.000000 0.000000 0.000000 3.511736 -31.365321 2.325945 -12.921093 16.153954 13.776066 14.926006 12.710795 -3.165224 -4.182810 -3.154975 -7.618875 2.347715 0.318433 -0.535497 0.000000 0.000000 0.000000 4.025556 -30.325705 2.262217 -7.815145 -0.965883 -8.624120 9.361742 8.807140 1.011520 -5.194089 -0.422919 4.573040 -1.738983 -0.168151 0.253504 0.000000 0.000000 0.000000 3.357930 -29.755125 1.208232 7.423797 0.047318 -1.057768 1.361024 -0.837728 2.362678 0.525015 0.161666 0.708049 0.000000 0.000000 0.000000 1.045110 -0.400063 2.534804 -4.538007 17.885060 -7.254525 -5.888309 15.527230 0.295995 0.000000 0.000000 0.000000 1.214484 -0.628636 2.632935 0.928551 -10.227689 0.141886 1.480122 -0.244142 0.410506 -59.727914 1.332447 -39.328181 9.674604 -60.239755 11.983125 0.000000 0.000000 0.000000 0.811194 -0.465321 2.685064 4.733447 6.119182 7.408591 -0.862162 -0.157197 -1.502773 0.175470 0.550046 63.410821 12.352056 23.166936 -3.841860 0.000000 0.000000 0.000000 
1.213035 94.661446 -1.659187 0.000000 0.000000 0.000000 3.698120 -31.262930 2.362972 -13.046209 15.999773 13.802278 14.918438 12.702542 -3.135409 -4.221566 -3.115671 -7.700540 2.312203 0.316708 -0.524025 0.000000 0.000000 0.000000 4.198635 -30.245382 2.288668 -7.893516 -0.909442 -8.583529 9.471171 8.851424 0.990872 -5.224533 -0.402227 4.589578 -1.667722 -0.177063 0.255935 0.000000 0.000000 0.000000 3.579055 -29.683674 1.258909 7.398471 0.065072 -1.078267 1.327730 -0.830099 2.365568 0.559333 0.092702 0.741148 0.000000 0.000000 0.000000 1.035897 -0.378576 2.544018 -4.435725 18.214098 -7.363932 -5.947990 15.735636 0.407646 0.000000 0.000000 0.000000 1.192936 -0.605119 2.638476 0.904002 -10.038182 0.019987 1.567079 -0.260700 0.496681 -59.703414 1.389263 -39.266795 9.754402 -60.368367 11.982179 0.000000 0.000000 0.000000 0.797659 -0.445691 2.686899 4.690669 6.191295 7.580275 -0.958884 -0.221864 -1.538607 0.263335 0.573905 63.382093 12.313112 22.946256 -3.845910 0.000000 0.000000 0.000000 
1.160685 94.630936 -1.642380 0.000000 0.000000 0.000000 3.936365 -31.070937 2.414586 -13.238254 15.766086 13.835740 14.941896 12.699267 -3.136118 -4.279493 -3.063315 -7.803444 2.308738 0.310531 -0.499054 0.000000 0.000000 0.000000 4.413082 -30.127715 2.334245 -8.026385 -0.878070 -8.541070 9.590929 8.890439 0.978738 -5.315261 -0.394762 4.595945 -1.561327 -0.179184 0.259038 0.000000 0.000000 0.000000 3.866900 -29.594735 1.341264 7.374825 0.092272 -1.092660 1.281714 -0.798760 2.363487 0.507045 0.007724 0.725327 0.000000 0.000000 0.000000 1.024900 -0.336134 2.545495 -4.266668 18.719491 -7.555008 -6.103764 16.128194 0.568556 0.000000 0.000000 0.000000 1.176312 -0.561744 2.633769 0.881116 -9.794602 -0.080309 1.626339 -0.159417 0.611530 -59.742647 1.435380 -39.251523 9.735724 -60.511528 11.889509 0.000000 0.000000 0.000000 0.779110 -0.407474 2.679218 4.657052 6.290842 7.745199 -0.960995 -0.254870 -1.647319 0.348279 0.590744 63.379115 12.253873 22.720387 -3.860254 0.000000 0.000000 0.000000 
1.088111 94.575882 -1.641655 0.000000 0.000000 0.000000 4.201761 -30.781173 2.477880 -13.490196 15.470512 13.872861 14.992583 12.711790 -3.170392 -4.351787 -2.997736 -7.901442 2.338897 0.302445 -0.462771 0.000000 0.000000 0.000000 4.656778 -29.935503 2.397653 -8.188886 -0.876603 -8.506252 9.707884 8.926693 0.973967 -5.451754 -0.396651 4.603720 -1.455222 -0.175028 0.263818 0.000000 0.000000 0.000000 4.197065 -29.447923 1.447123 7.342838 0.123910 -1.100215 1.231630 -0.749621 2.355332 0.429570 -0.110813 0.724407 0.000000 0.000000 0.000000 1.011328 -0.279595 2.539853 -4.013448 19.410554 -7.873231 -6.363112 16.722195 0.746077 0.000000 0.000000 0.000000 1.165729 -0.504753 2.623128 0.867736 -9.526184 -0.145661 1.660587 0.020830 0.728606 -59.866881 1.506946 -39.309279 9.621671 -60.602848 11.706797 0.000000 0.000000 0.000000 0.762050 -0.356891 2.664966 4.630864 6.417212 7.867031 -0.904695 -0.232978 -1.790078 0.437742 0.588837 63.412651 12.181853 22.510082 -3.880757 0.000000 0.000000 0.000000 
0.988098 94.498947 -1.657555 0.000000 0.000000 0.000000 4.483199 -30.391405 2.556655 -13.778295 15.134890 13.909593 15.058750 12.736510 -3.237216 -4.417774 -2.930193 -7.983940 2.374391 0.292850 -0.413594 0.000000 0.000000 0.000000 4.912465 -29.628678 2.474577 -8.355864 -0.913735 -8.478245 9.812391 8.955193 0.970850 -5.628519 -0.415613 4.602126 -1.351168 -0.165473 0.272586 0.000000 0.000000 0.000000 4.544282 -29.203727 1.567519 7.291324 0.157930 -1.102441 1.184700 -0.690454 2.339509 0.361505 -0.278713 0.755031 0.000000 0.000000 0.000000 0.995885 -0.215125 2.528313 -3.656295 20.290081 -8.364640 -6.726256 17.543606 0.901178 0.000000 0.000000 0.000000 1.166090 -0.440984 2.610081 0.868326 -9.264853 -0.161130 1.683971 0.165030 0.794110 -60.117754 1.604121 -39.477380 9.441782 -60.628987 11.461014 0.000000 0.000000 0.000000 0.751747 -0.300028 2.646171 4.610625 6.568047 7.918177 -0.802353 -0.180173 -1.924508 0.521666 0.525481 63.490303 12.107469 22.336110 -3.905967 0.000000 0.000000 0.000000 
0.859883 94.406273 -1.680420 0.000000 0.000000 0.000000 4.764781 -29.897490 2.650050 -14.090595 14.763720 13.947020 15.129921 12.766983 -3.329542 -4.454745 -2.874755 -8.055342 2.399906 0.281369 -0.357315 0.000000 0.000000 0.000000 5.168791 -29.197303 2.558505 -8.514772 -1.010983 -8.450862 9.912937 8.953291 0.960269 -5.844701 -0.469103 4.568997 -1.234502 -0.153904 0.289377 0.000000 0.000000 0.000000 4.897001 -28.841164 1.692813 7.217283 0.194157 -1.104512 1.151259 -0.629729 2.312204 0.333812 -0.433328 0.799200 0.000000 0.000000 0.000000 0.988733 -0.148956 2.511455 -3.175176 21.356144 -9.054155 -7.188885 18.587357 1.016486 0.000000 0.000000 0.000000 1.176966 -0.375166 2.594320 0.882896 -9.035441 -0.139210 1.707743 0.223249 0.833036 -60.509001 1.712040 -39.767103 9.263266 -60.626316 11.210168 0.000000 0.000000 0.000000 0.744456 -0.241774 2.622513 4.597371 6.734464 7.896603 -0.667234 -0.131019 -2.015909 0.608946 0.354840 63.598022 12.039443 22.233645 -3.929615 0.000000 0.000000 0.000000 
0.715406 94.303749 -1.702312 0.000000 0.000000 0.000000 5.043304 -29.299514 2.747238 -14.423321 14.362810 13.988682 15.206311 12.785227 -3.442243 -4.452906 -2.851642 -8.124122 2.430872 0.265565 -0.300438 0.000000 0.000000 0.000000 5.422526 -28.641615 2.641513 -8.656140 -1.194645 -8.420610 10.026128 8.911466 0.945164 -6.097826 -0.566255 4.493153 -1.112484 -0.145645 0.313155 0.000000 0.000000 0.000000 5.243632 -28.353268 1.815392 7.119739 0.233110 -1.109381 1.136921 -0.570774 2.273894 0.339973 -0.542243 0.859525 0.000000 0.000000 0.000000 0.999689 -0.084565 2.490183 -2.550493 22.587168 -9.947663 -7.739021 19.822322 1.086869 0.000000 0.000000 0.000000 1.196097 -0.307708 2.577720 0.907140 -8.844973 -0.100024 1.724170 0.266322 0.815745 -60.999347 1.831074 -40.130244 9.121806 -60.625278 10.987376 0.000000 0.000000 0.000000 0.736580 -0.188921 2.593987 4.588908 6.914411 7.811656 -0.516327 -0.111660 -2.074195 0.744554 0.067448 63.702019 11.991406 22.201072 -3.947110 0.000000 0.000000 0.000000 
0.561572 94.195267 -1.712170 0.000000 0.000000 0.000000 5.318366 -28.580508 2.836820 -14.772632 13.942451 14.037065 15.292170 12.779940 -3.571354 -4.429329 -2.884138 -8.190339 2.480143 0.242774 -0.250171 0.000000 0.000000 0.000000 5.670724 -27.970892 2.716445 -8.776546 -1.482227 -8.392031 10.162728 8.831318 0.936401 -6.390837 -0.699031 4.384630 -0.993669 -0.142577 0.337839 0.000000 0.000000 0.000000 5.577678 -27.737043 1.926988 7.004348 0.279036 -1.116657 1.140550 -0.513333 2.228870 0.369853 -0.626284 0.867239 0.000000 0.000000 0.000000 1.022134 -0.022971 2.465287 -1.785415 23.929124 -11.027828 -8.351789 21.175905 1.123719 0.000000 0.000000 0.000000 1.218136 -0.237653 2.562564 0.936407 -8.688883 -0.061460 1.767473 0.341422 0.770871 -61.488921 1.958504 -40.473256 9.041524 -60.628461 10.814023 0.000000 0.000000 0.000000 0.729376 -0.140106 2.561868 4.579362 7.111961 7.671450 -0.352523 -0.112815 -2.108846 0.970143 -0.297339 63.775355 11.971764 22.212757 -3.964085 0.000000 0.000000 0.000000 
0.400463 94.076149 -1.716866 0.000000 0.000000 0.000000 5.588727 -27.743779 2.908566 -15.145509 13.484329 14.091650 15.382068 12.746317 -3.709247 -4.396430 -2.978221 -8.271730 2.545976 0.214889 -0.200605 0.000000 0.000000 0.000000 5.912878 -27.180960 2.775129 -8.881014 -1.874395 -8.372194 10.333682 8.718878 0.945102 -6.727476 -0.848915 4.251292 -0.875218 -0.142378 0.358749 0.000000 0.000000 0.000000 5.899750 -27.003747 2.023633 6.873791 0.338717 -1.127013 1.152695 -0.456071 2.181960 0.397587 -0.689255 0.854181 0.000000 0.000000 0.000000 1.048869 0.040068 2.441973 -0.907577 25.319860 -12.266786 -8.994663 22.570949 1.151038 0.000000 0.000000 0.000000 1.241995 -0.158925 2.549958 0.962845 -8.550313 -0.061381 1.823645 0.447626 0.748857 -61.876678 2.126325 -40.682068 9.027096 -60.649539 10.693824 0.000000 0.000000 0.000000 0.723401 -0.089370 2.532644 4.566582 7.340199 7.493223 -0.205742 -0.091675 -2.115708 1.302952 -0.676958 63.797894 11.984839 22.251156 -3.987771 0.000000 0.000000 0.000000 
0.228441 93.943031 -1.716084 0.000000 0.000000 0.000000 5.848930 -26.794426 2.956648 -15.546113 12.982331 14.161328 15.491955 12.686350 -3.857016 -4.355848 -3.130476 -8.371780 2.615432 0.182678 -0.144649 0.000000 0.000000 0.000000 6.143531 -26.281572 2.813764 -8.962251 -2.362658 -8.361699 10.539806 8.584399 0.977677 -7.108834 -1.002876 4.098149 -0.722081 -0.142034 0.372781 0.000000 0.000000 0.000000 6.207251 -26.156469 2.101958 6.731053 0.418419 -1.141628 1.169323 -0.390683 2.140587 0.433504 -0.753180 0.837483 0.000000 0.000000 0.000000 1.070242 0.112267 2.425465 0.048237 26.690255 -13.628144 -9.648616 23.927319 1.193079 0.000000 0.000000 0.000000 1.267015 -0.067865 2.543447 0.977194 -8.399049 -0.131635 1.890691 0.552599 0.750859 -62.107170 2.366129 -40.680012 9.062428 -60.754847 10.616808 0.000000 0.000000 0.000000 0.722042 -0.026607 2.509908 4.547883 7.609131 7.288140 -0.068454 -0.031228 -2.093467 1.721440 -1.033869 63.762780 12.023446 22.298117 -4.026473 0.000000 0.000000 0.000000 
